# This file uses centimeters as units for non-parametric coordinates.

mtllib vase_obj.mtl
g default
v -3.296492 1.819580 18.342387
v -3.294017 1.854915 18.375416
v -3.329514 1.854915 18.339913
v -2.206451 1.854915 18.339913
v -2.240562 1.853623 18.375500
v -2.239474 1.819580 18.342387
v -3.101231 5.224548 18.113957
v -3.067102 5.223528 18.147206
v -3.065896 5.257571 18.111804
v -2.470069 5.257571 18.111804
v -2.467908 5.224548 18.147137
v -2.434734 5.224548 18.113957
v -3.101300 5.223528 17.514769
v -3.065896 5.257571 17.515980
v -3.067102 5.223528 17.480561
v -2.468864 5.223528 17.480561
v -2.470069 5.257571 17.515980
v -2.434665 5.223528 17.514769
v -3.329514 1.854915 17.287854
v -3.295403 1.853623 17.252266
v -3.296492 1.819580 17.285380
v -2.239474 1.819580 17.285380
v -2.241948 1.854915 17.252350
v -2.206451 1.854915 17.287854
v -2.268743 1.774979 17.314656
v -3.267222 1.774979 17.314656
v -2.268743 1.774979 18.313126
v -3.267222 1.774979 18.313126
v -3.267222 1.746019 18.313126
v -2.283221 1.746019 17.329127
v -2.268743 1.760497 17.314656
v -3.267222 1.746019 17.329127
v -3.267222 1.760497 17.314656
v -2.283221 1.746019 18.313126
v -2.268743 1.760497 18.313126
v -2.539583 2.969191 18.042296
v -2.996383 2.969191 18.042296
v -2.539583 2.969191 17.585488
v -2.996383 2.969191 17.585488
v -2.493907 5.257571 18.087973
v -2.539583 5.211895 18.042296
v -3.042058 5.257571 18.087973
v -2.996383 5.211895 18.042296
v -2.493907 5.257571 17.539816
v -2.539583 5.211895 17.585488
v -3.042058 5.257571 17.539816
v -2.996383 5.211895 17.585488
vt 0.588260 0.602573
vt 0.588260 0.318449
vt 0.886705 0.379731
vt 0.886796 0.541550
vt 0.886705 0.370493
vt 0.588260 0.308861
vt 0.588146 0.612183
vt 0.886796 0.550511
vt 0.312045 0.295704
vt 0.312045 0.011580
vt 0.610581 0.072603
vt 0.610490 0.234422
vt 0.312045 0.001992
vt 0.610490 0.063623
vt 0.610490 0.243660
vt 0.311931 0.305314
vt 0.295447 0.611080
vt 0.295447 0.880731
vt 0.294164 0.880731
vt 0.292881 0.876823
vt 0.292881 0.611080
vt 0.302823 0.611080
vt 0.302823 0.880731
vt 0.301540 0.880731
vt 0.301540 0.611080
vt 0.561717 0.809775
vt 0.438350 0.809775
vt 0.438350 0.611080
vt 0.561717 0.611080
vt 0.821483 0.814424
vt 0.698116 0.814424
vt 0.698116 0.615730
vt 0.821483 0.615730
vt 0.010688 0.296394
vt 0.001770 0.295726
vt 0.001770 0.011603
vt 0.010688 0.010935
vt 0.011356 0.305314
vt 0.010982 0.001992
vt 0.018593 0.018841
vt 0.018593 0.288492
vt 0.296151 0.296394
vt 0.295857 0.305337
vt 0.295482 0.002015
vt 0.296151 0.010935
vt 0.288246 0.018841
vt 0.288246 0.288492
vt 0.305069 0.295726
vt 0.305069 0.011603
vt 0.706780 0.826951
vt 0.716323 0.827532
vt 0.716323 0.988442
vt 0.706762 0.988770
vt 0.715998 0.817971
vt 0.722761 0.833968
vt 0.722761 0.982005
vt 0.715998 0.998008
vt 0.877818 0.817990
vt 0.877234 0.827532
vt 0.870797 0.833968
vt 0.735096 0.846304
vt 0.735096 0.969671
vt 0.877234 0.988442
vt 0.870797 0.982005
vt 0.877560 0.998008
vt 0.886777 0.826951
vt 0.858461 0.846304
vt 0.858461 0.969671
vt 0.886796 0.988770
vt 0.577945 0.817971
vt 0.701310 0.817971
vt 0.701310 0.941339
vt 0.577945 0.941339
vt 0.014510 0.614900
vt 0.010602 0.610990
vt 0.280253 0.610990
vt 0.280253 0.614900
vt 0.014510 0.880643
vt 0.010602 0.880643
vt 0.280253 0.880643
vt 0.298194 0.308998
vt 0.582694 0.308884
vt 0.521296 0.607534
vt 0.359476 0.607443
vt 0.069898 0.308884
vt 0.231460 0.308884
vt 0.292742 0.607329
vt 0.008242 0.607443
vt 0.004336 0.610990
vt 0.004336 0.880643
vt 0.001770 0.880643
vt 0.001770 0.614900
vt 0.003053 0.610990
vt 0.285954 0.880643
vt 0.285954 0.610990
vt 0.287237 0.610990
vt 0.287237 0.880643
vt 0.308467 0.611080
vt 0.431832 0.611080
vt 0.431832 0.809775
vt 0.308467 0.809775
vt 0.691598 0.814424
vt 0.568233 0.814424
vt 0.568233 0.615730
vt 0.691598 0.615730
vn -0.730613 -0.682792 0.000000
vn -0.730613 -0.682792 0.000000
vn -0.730613 -0.682792 0.000000
vn -0.730613 -0.682792 0.000000
vn -0.000451 -0.690031 0.723780
vn -0.000451 -0.690031 0.723780
vn -0.000451 -0.690031 0.723780
vn -0.000451 -0.690031 0.723780
vn -0.698748 0.094993 0.709033
vn -0.698748 0.094993 0.709033
vn -0.698748 0.094993 0.709033
vn -0.698748 0.094993 0.709033
vn 0.730613 -0.682792 0.000000
vn 0.730613 -0.682792 0.000000
vn 0.730613 -0.682792 0.000000
vn 0.730613 -0.682792 0.000000
vn 0.710647 0.095022 0.697102
vn 0.710647 0.095022 0.697102
vn 0.710647 0.095022 0.697102
vn 0.710647 0.095022 0.697102
vn -0.688016 0.725695 -0.000580
vn -0.688016 0.725695 -0.000580
vn -0.688016 0.725695 -0.000580
vn -0.688016 0.725695 -0.000580
vn -0.000580 0.725681 0.688031
vn -0.000580 0.725681 0.688031
vn -0.000580 0.725681 0.688031
vn -0.000580 0.725681 0.688031
vn 0.688016 0.725695 -0.000580
vn 0.688016 0.725695 -0.000580
vn 0.688016 0.725695 -0.000580
vn 0.688016 0.725695 -0.000580
vn -0.710549 0.095234 -0.697173
vn -0.710549 0.095234 -0.697173
vn -0.710549 0.095234 -0.697173
vn -0.710549 0.095234 -0.697173
vn 0.000000 0.720980 -0.692955
vn 0.000000 0.720981 -0.692955
vn 0.000000 0.720981 -0.692955
vn 0.000000 0.720980 -0.692955
vn 0.703988 0.095103 -0.703816
vn 0.703988 0.095103 -0.703816
vn 0.703988 0.095103 -0.703816
vn 0.703988 0.095103 -0.703816
vn 0.000451 -0.690031 -0.723780
vn 0.000451 -0.690031 -0.723780
vn 0.000451 -0.690031 -0.723780
vn 0.000451 -0.690031 -0.723780
vn 0.000002 0.067591 0.997713
vn 0.000002 0.067591 0.997713
vn 0.000002 0.067591 0.997713
vn 0.000002 0.067591 0.997713
vn 0.000000 1.000000 0.000000
vn 0.000000 1.000000 0.000000
vn 0.000000 1.000000 0.000000
vn 0.000000 1.000000 0.000000
vn -0.000002 0.067591 -0.997713
vn -0.000002 0.067591 -0.997713
vn -0.000002 0.067591 -0.997713
vn -0.000002 0.067591 -0.997713
vn 0.997713 0.067592 -0.000000
vn 0.997713 0.067592 -0.000000
vn 0.997713 0.067592 -0.000000
vn 0.997713 0.067592 -0.000000
vn -0.997713 0.067592 -0.000000
vn -0.997713 0.067592 -0.000000
vn -0.997713 0.067592 -0.000000
vn -0.997713 0.067592 -0.000000
vn -0.603346 -0.521622 0.603228
vn -0.603346 -0.521622 0.603228
vn -0.603346 -0.521622 0.603228
vn 0.618339 -0.537739 0.573143
vn 0.618339 -0.537739 0.573143
vn 0.618339 -0.537739 0.573143
vn -0.540380 0.615626 0.573580
vn -0.540380 0.615626 0.573580
vn -0.540380 0.615626 0.573580
vn 0.551457 0.626029 0.551346
vn 0.551457 0.626029 0.551346
vn 0.551457 0.626029 0.551346
vn -0.562882 0.605406 -0.562715
vn -0.562882 0.605406 -0.562715
vn -0.562882 0.605406 -0.562715
vn 0.562882 0.605406 -0.562715
vn 0.562882 0.605406 -0.562715
vn 0.562882 0.605406 -0.562715
vn -0.618339 -0.537739 -0.573143
vn -0.618339 -0.537739 -0.573143
vn -0.618339 -0.537739 -0.573143
vn 0.603346 -0.521622 -0.603228
vn 0.603346 -0.521622 -0.603228
vn 0.603346 -0.521622 -0.603228
vn 0.000000 -0.548735 -0.835996
vn 0.000000 -0.548735 -0.835996
vn 0.000000 -0.548735 -0.835996
vn 0.000000 -0.548735 -0.835996
vn 0.836052 -0.548649 0.000000
vn 0.836052 -0.548649 0.000000
vn 0.836052 -0.548650 0.000000
vn 0.836052 -0.548649 0.000000
vn 0.000000 -0.548538 0.836126
vn 0.000000 -0.548538 0.836126
vn 0.000000 -0.548538 0.836126
vn 0.000000 -0.548538 0.836126
vn -0.836053 -0.548649 0.000000
vn -0.836053 -0.548649 0.000000
vn -0.836053 -0.548649 0.000000
vn -0.836053 -0.548649 0.000000
vn 0.000000 0.000000 1.000000
vn 0.000000 0.000000 1.000000
vn 0.000000 0.000000 1.000000
vn 0.000000 0.000000 1.000000
vn 0.000000 0.000000 1.000000
vn -1.000000 0.000000 0.000000
vn -1.000000 0.000000 0.000000
vn -1.000000 0.000000 0.000000
vn -1.000000 0.000000 0.000000
vn -1.000000 0.000000 0.000000
vn 0.707104 -0.707109 0.000000
vn 0.707104 -0.707109 0.000000
vn 0.707104 -0.707109 0.000000
vn 0.707104 -0.707109 0.000000
vn 0.000000 -0.706926 -0.707287
vn 0.000000 -0.706926 -0.707287
vn 0.000000 -0.706926 -0.707287
vn 0.000000 -0.706926 -0.707287
vn 0.000000 -1.000000 0.000000
vn 0.000000 -1.000000 0.000000
vn 0.000000 -1.000000 0.000000
vn 0.000000 -1.000000 0.000000
vn 0.000000 0.000000 -1.000000
vn 0.000000 0.000000 -1.000000
vn 0.000000 0.000000 -1.000000
vn 0.000000 0.000000 -1.000000
vn 1.000000 0.000000 0.000000
vn 1.000000 0.000000 0.000000
vn 1.000000 0.000000 0.000000
vn 1.000000 0.000000 0.000000
vn 0.000000 0.707114 -0.707099
vn 0.000000 0.707114 -0.707099
vn 0.000000 0.707114 -0.707099
vn 0.000000 0.707114 -0.707099
vn -0.707107 0.707106 0.000000
vn -0.707107 0.707106 0.000000
vn -0.707107 0.707106 0.000000
vn -0.707107 0.707106 0.000000
vn 0.707107 0.707106 0.000000
vn 0.707107 0.707106 0.000000
vn 0.707107 0.707106 0.000000
vn 0.707107 0.707106 0.000000
vn 0.000000 0.707081 0.707133
vn 0.000000 0.707081 0.707133
vn 0.000000 0.707081 0.707133
vn 0.000000 0.707081 0.707133
vn 0.000000 1.000000 -0.000000
vn 0.000000 1.000000 -0.000000
vn 0.000000 1.000000 -0.000000
vn 0.000000 1.000000 -0.000000
vn 0.000000 1.000000 0.000000
vn 0.000000 1.000000 0.000000
vn 0.000000 1.000000 0.000000
vn 0.000000 1.000000 0.000000
vn 0.000000 0.000000 -1.000000
vn 0.000000 0.000000 -1.000000
vn 0.000000 0.000000 -1.000000
vn 0.000000 0.000000 -1.000000
vn -1.000000 0.000000 0.000000
vn -1.000000 0.000000 0.000000
vn -1.000000 0.000000 0.000000
vn -1.000000 0.000000 0.000000
vn 0.000000 0.000000 1.000000
vn 0.000000 0.000000 1.000000
vn 0.000000 0.000000 1.000000
vn 0.000000 0.000000 1.000000
vn 1.000000 0.000000 0.000000
vn 1.000000 0.000000 0.000000
vn 1.000000 0.000000 0.000000
vn 1.000000 0.000000 0.000000
s off
g flower_pot
usemtl aiStandardSurface13SG
f 1/34/1 3/35/2 19/36/3 21/37/4
f 2/38/5 1/34/6 6/42/7 5/43/8
f 3/10/9 2/13/10 8/14/11 7/11/12
f 4/48/13 6/42/14 22/45/15 24/49/16
f 5/7/17 4/1/18 12/4/19 11/8/20
f 7/50/21 9/51/22 14/52/23 13/53/24
f 9/51/25 8/54/26 11/58/27 10/59/28
f 10/59/29 12/66/30 18/69/31 17/63/32
f 13/12/33 15/15/34 20/16/35 19/9/36
f 15/57/37 14/52/38 17/63/39 16/65/40
f 16/5/41 18/3/42 24/2/43 23/6/44
f 21/37/45 20/39/46 23/44/47 22/45/48
f 2/81/49 5/82/50 11/83/51 8/84/52
f 37/70/53 36/71/54 38/72/55 39/73/56
f 15/85/57 16/86/58 23/87/59 20/88/60
f 4/1/61 24/2/62 18/3/63 12/4/64
f 19/9/65 3/10/66 7/11/67 13/12/68
f 1/34/69 2/38/70 3/35/71
f 4/48/72 5/43/73 6/42/74
f 7/50/75 8/54/76 9/51/77
f 10/59/78 11/58/79 12/66/80
f 13/53/81 14/52/82 15/57/83
f 16/65/84 17/63/85 18/69/86
f 19/36/87 20/39/88 21/37/89
f 22/45/90 23/44/91 24/49/92
f 21/37/93 22/45/94 25/46/95 26/40/96
f 22/45/97 6/42/98 27/47/99 25/46/100
f 6/42/101 1/34/102 28/41/103 27/47/104
f 1/34/105 21/37/106 26/40/107 28/41/108
f 27/89/109 28/90/110 29/91/111 34/92/112 35/93/113
f 28/17/114 26/18/115 33/19/116 32/20/117 29/21/118
f 30/74/119 31/75/120 35/76/121 34/77/122
f 31/75/123 30/74/124 32/78/125 33/79/126
f 32/78/127 30/74/128 34/77/129 29/80/130
f 26/94/131 25/95/132 31/96/133 33/97/134
f 25/22/135 27/23/136 35/24/137 31/25/138
f 40/60/139 41/67/140 43/61/141 42/55/142
f 41/67/143 40/60/144 44/64/145 45/68/146
f 42/55/147 43/61/148 47/62/149 46/56/150
f 45/68/151 44/64/152 46/56/153 47/62/154
s 1
f 9/51/155 10/59/156 40/60/157 42/55/158
f 10/59/156 17/63/159 44/64/160 40/60/157
f 17/63/159 14/52/161 46/56/162 44/64/160
f 14/52/161 9/51/155 42/55/158 46/56/162
s off
f 43/98/163 41/99/164 36/100/165 37/101/166
f 41/26/167 45/27/168 38/28/169 36/29/170
f 45/102/171 47/103/172 39/104/173 38/105/174
f 47/30/175 43/31/176 37/32/177 39/33/178
